<?xml version="1.0" standalone="no"?>
<!DOCTYPE svg PUBLIC "-//W3C//DTD SVG 20010904//EN"
 "http://www.w3.org/TR/2001/REC-SVG-20010904/DTD/svg10.dtd">
<svg version="1.0" xmlns="http://www.w3.org/2000/svg"
 width="400.000000pt" height="400.000000pt" viewBox="0 0 400.000000 400.000000"
 preserveAspectRatio="xMidYMid meet">
<metadata>
Created by potrace 1.11, written by Peter Selinger 2001-2013
</metadata>
<g transform="translate(0.000000,400.000000) scale(0.100000,-0.100000)"
fill="#000000" stroke="none">
<path d="M2010 3539 c-49 -8 -112 -30 -295 -106 -66 -28 -262 -108 -435 -178
-351 -142 -394 -167 -466 -260 -46 -60 -64 -108 -139 -360 -38 -126 -105 -354
-151 -505 -80 -268 -82 -277 -79 -365 2 -55 10 -107 21 -135 16 -43 85 -152
194 -310 29 -41 71 -102 94 -135 22 -33 46 -65 51 -72 6 -6 73 -103 150 -215
158 -229 207 -283 293 -327 73 -37 131 -51 237 -56 44 -3 107 -7 140 -10 33
-2 105 -7 160 -10 55 -3 134 -8 175 -11 41 -3 103 -7 138 -9 35 -2 113 -7 175
-11 176 -13 254 -9 322 17 65 24 136 69 173 109 13 14 63 67 110 119 48 52 92
99 97 105 6 6 51 56 100 111 50 55 99 109 110 121 11 11 56 61 101 110 44 49
106 117 137 151 65 71 101 137 123 225 18 68 15 146 -12 303 -16 98 -16 94
-39 240 -9 55 -18 111 -20 125 -2 14 -18 111 -35 215 -16 105 -35 220 -41 257
-23 146 -116 275 -250 350 -35 20 -86 48 -114 63 -27 16 -84 47 -125 70 -41
24 -91 51 -110 62 -406 227 -520 288 -566 304 -60 21 -155 29 -224 18z"/>
</g>
</svg>
