<svg xmlns="http://www.w3.org/2000/svg" viewBox="0 0 64.51 24.65"><title>Asset 3</title><g id="Layer_2" data-name="Layer 2"><g id="Layer_1-2" data-name="Layer 1"><path d="M31.74,4.07l-.23,1.26a2.25,2.25,0,0,0-1.87-.72c-.9,0-1.41.35-1.41.8s.34.52,1.4.63c1.71.17,2.34.77,2.34,2s-.84,1.78-2.39,1.78a2.51,2.51,0,0,1-2.45-1.23l.29-1.2a2.43,2.43,0,0,0,2.06.9C30.56,8.32,31,8,31,7.55S30.58,7,29.56,6.9c-1.56-.15-2.23-.62-2.23-2S28.12,3,29.54,3A2.35,2.35,0,0,1,31.74,4.07Z"/><path d="M35.78,9.85c-.93,0-1.61-.5-1.61-1.95V5.13h-1V3.26h1V1.7h.77V3.26h1.8V5.13h-1.8V7.07c0,.87.41,1.17,1,1.18A1.49,1.49,0,0,0,37,7.88l.33,1.21A1.74,1.74,0,0,1,35.78,9.85Z"/><path d="M42.79,8.68a2.17,2.17,0,0,1-2.06,1.17c-1.33,0-2.18-.71-2.18-2.84V3.14h.76V6.39c0,1.37.38,1.86,1.61,1.86A1.92,1.92,0,0,0,42.8,7.16v-4h.78V9.73h-.73Z"/><path d="M49.19,8.7a2.28,2.28,0,0,1-2,1.15c-1.61,0-2.54-1.21-2.54-3.31C44.67,4,45.67,3,47.16,3a2.07,2.07,0,0,1,2,1.19V.38h.78V9.73h-.66Zm0-1V6.54c0-.88-.53-1.58-1.92-1.58-1.22,0-1.86.7-1.86,1.58a1.73,1.73,0,0,0,1.89,1.9A2,2,0,0,0,49.15,7.72Z"/><path d="M52.76,5.35H51.27v-2h2.27V9.73h-.78Zm-.19-3.11c-.69,0-1.08-.33-1.08-1s.36-1,1.08-1,1,.28,1,1A.92.92,0,0,1,52.57,2.24Z"/><path d="M55,6.56C55,4,56.11,3,57.74,3S60.5,4,60.5,6.56c0,2.3-1.15,3.29-2.76,3.29S55,8.86,55,6.56Zm4.8,0c0-1-.69-1.65-2-1.65s-2,.69-2.05,1.65c0,1.42.94,1.89,2.05,1.89S59.81,8,59.79,6.56Z"/><path d="M28.31,18.26v3.47h-.78V15.14h.78v1.08a2.05,2.05,0,0,1,2-1.2c1.59,0,2.28.73,2.28,3.08v3.63h-.76V18.84c0-1.22-.45-1.77-1.58-1.77A1.85,1.85,0,0,0,28.31,18.26Z"/><path d="M38.14,20.68a2.2,2.2,0,0,1-2.07,1.17c-1.33,0-2.18-.71-2.18-2.84V15.14h.77v3.25c0,1.37.37,1.86,1.6,1.86a1.93,1.93,0,0,0,1.89-1.09v-4h.78v6.59H38.2Z"/><path d="M40.19,23.19l.3-1.05a3.15,3.15,0,0,0,2.61,1c1.31,0,1.8-.4,1.8-.82s-.36-.58-.81-.58c-.69,0-1.41.17-2.22.17A1.45,1.45,0,0,1,41,19.38a2.1,2.1,0,0,1-.51-1.53c0-2.12,1-2.83,2.48-2.83a2.36,2.36,0,0,1,2,.81c.31-.62.94-.79,1.77-.69l-.43,1.52a1.45,1.45,0,0,0-1,0,4.18,4.18,0,0,1,.14,1.14c0,1.84-1.43,2.26-2.54,2.26a3.49,3.49,0,0,1-1.19-.19A.58.58,0,0,0,42,21c.73,0,1.41-.21,2.26-.22a1.51,1.51,0,0,1,1.68,1.67c0,1-.89,2.18-2.87,2.18A3,3,0,0,1,40.19,23.19Zm4.47-5.31c0-.69-.56-1.11-1.74-1.11s-1.67.44-1.69,1.11.51,1.18,1.69,1.18S44.66,18.42,44.66,17.88Z"/><path d="M47.15,23.19l.3-1.05a3.15,3.15,0,0,0,2.61,1c1.31,0,1.8-.4,1.8-.82s-.36-.58-.81-.58c-.69,0-1.41.17-2.22.17a1.45,1.45,0,0,1-.92-2.56,2.1,2.1,0,0,1-.51-1.53c0-2.12,1-2.83,2.48-2.83a2.36,2.36,0,0,1,2,.81c.31-.62.94-.79,1.77-.69l-.43,1.52a1.45,1.45,0,0,0-1,0,4.18,4.18,0,0,1,.14,1.14c0,1.84-1.43,2.26-2.54,2.26a3.49,3.49,0,0,1-1.19-.19A.58.58,0,0,0,48.91,21c.73,0,1.41-.21,2.26-.22a1.51,1.51,0,0,1,1.68,1.67c0,1-.89,2.18-2.87,2.18A3,3,0,0,1,47.15,23.19Zm4.47-5.31c0-.69-.56-1.11-1.74-1.11s-1.67.44-1.69,1.11.51,1.18,1.69,1.18S51.62,18.42,51.62,17.88Z"/><path d="M56.77,21.85c-1.8,0-2.72-1.37-2.72-3.32,0-2.55,1.26-3.51,2.7-3.51,1.63,0,2.7,1.2,2.7,3.93H54.78a1.77,1.77,0,0,0,2,1.57,2,2,0,0,0,1.91-.72l.56.42A2.64,2.64,0,0,1,56.77,21.85Zm-2-3.68h3.89c0-.73-.76-1.45-2-1.45A1.86,1.86,0,0,0,54.78,18.17Z"/><path d="M62.93,21.85c-.94,0-1.62-.5-1.62-2V17.13h-1V15.26h1V13.7h.78v1.56h1.8v1.87h-1.8v1.94c0,.87.41,1.17,1,1.18a1.5,1.5,0,0,0,1.11-.37l.32,1.21A1.72,1.72,0,0,1,62.93,21.85Z"/><path d="M2.23,5.21l-2.09,7a3.44,3.44,0,0,0,.48,2.95l4.18,6a3.43,3.43,0,0,0,2.61,1.47l7.3.47A3.44,3.44,0,0,0,17.49,22l4.92-5.41a3.44,3.44,0,0,0,.85-2.87L22.1,6.49A3.44,3.44,0,0,0,20.38,4L14,.44a3.48,3.48,0,0,0-3-.19L4.24,3A3.45,3.45,0,0,0,2.23,5.21Z"/></g></g></svg>